<svg width="26" height="18" viewBox="0 0 26 18" fill="none" xmlns="http://www.w3.org/2000/svg">
<path d="M2.6 0.5H23.4C24.0896 0.5 24.7509 0.755866 25.2385 1.21131C25.7261 1.66676 26 2.28447 26 2.92857V15.0714C26 15.7155 25.7261 16.3332 25.2385 16.7887C24.7509 17.2441 24.0896 17.5 23.4 17.5H2.6C1.91044 17.5 1.24912 17.2441 0.761522 16.7887C0.273928 16.3332 0 15.7155 0 15.0714V2.92857C0 2.28447 0.273928 1.66676 0.761522 1.21131C1.24912 0.755866 1.91044 0.5 2.6 0.5ZM20.8 2.92857H5.2C5.2 3.57267 4.92607 4.19038 4.43848 4.64583C3.95088 5.10128 3.28956 5.35714 2.6 5.35714V12.6429C3.28956 12.6429 3.95088 12.8987 4.43848 13.3542C4.92607 13.8096 5.2 14.4273 5.2 15.0714H20.8C20.8 14.4273 21.0739 13.8096 21.5615 13.3542C22.0491 12.8987 22.7104 12.6429 23.4 12.6429V5.35714C22.7104 5.35714 22.0491 5.10128 21.5615 4.64583C21.0739 4.19038 20.8 3.57267 20.8 2.92857ZM7.8 5.35714H10.4V12.6429H7.8V5.35714ZM15.6 10.2143C15.9448 10.2143 16.2754 10.0864 16.5192 9.85863C16.763 9.63091 16.9 9.32205 16.9 9C16.9 8.67795 16.763 8.36909 16.5192 8.14137C16.2754 7.91365 15.9448 7.78571 15.6 7.78571C15.2552 7.78571 14.9246 7.91365 14.6808 8.14137C14.437 8.36909 14.3 8.67795 14.3 9C14.3 9.32205 14.437 9.63091 14.6808 9.85863C14.9246 10.0864 15.2552 10.2143 15.6 10.2143ZM15.6 12.6429C14.5657 12.6429 13.5737 12.2591 12.8423 11.5759C12.1109 10.8927 11.7 9.96615 11.7 9C11.7 8.03385 12.1109 7.10728 12.8423 6.42411C13.5737 5.74094 14.5657 5.35714 15.6 5.35714C16.6343 5.35714 17.6263 5.74094 18.3577 6.42411C19.0891 7.10728 19.5 8.03385 19.5 9C19.5 9.96615 19.0891 10.8927 18.3577 11.5759C17.6263 12.2591 16.6343 12.6429 15.6 12.6429Z" fill="#4B2D10"/>
</svg>
