<svg width="149" height="61" viewBox="0 0 149 61" fill="none" xmlns="http://www.w3.org/2000/svg">
    <circle cx="6.35841" cy="6.35841" r="6.35841" fill="#FF6B00"/>
    <circle cx="34.5172" cy="6.35841" r="6.35841" fill="#FFB800"/>
    <mask id="mask0_961_2914" style="mask-type:alpha" maskUnits="userSpaceOnUse" x="0" y="14" width="41" height="44">
    <path d="M20.4075 41.816C18.833 41.816 17.3998 40.9838 16.108 39.3192L11.7479 33.5949V51.9249C11.7479 53.833 11.1625 55.2945 9.99178 56.3095C8.82103 57.3244 7.46861 57.8319 5.93451 57.8319C4.31968 57.8319 2.92689 57.3447 1.75613 56.3704C0.585377 55.3554 0 53.8736 0 51.9249V20.8066C0 19.8322 0.161483 18.9594 0.48445 18.188C0.847788 17.376 1.31205 16.7062 1.87724 16.1784C2.44244 15.6506 3.08837 15.2446 3.81504 14.9605C4.58209 14.6763 5.36932 14.5342 6.17674 14.5342C7.22638 14.5342 8.27602 14.7981 9.32566 15.3258C10.3753 15.813 11.2836 16.5438 12.0507 17.5181L20.4075 28.2969L28.8248 17.5181C29.5918 16.5438 30.48 15.813 31.4893 15.3258C32.5389 14.7981 33.5885 14.5342 34.6382 14.5342C35.4456 14.5342 36.2126 14.6763 36.9393 14.9605C37.7064 15.2446 38.3725 15.6506 38.9377 16.1784C39.5432 16.7062 40.0075 17.376 40.3305 18.188C40.6938 18.9594 40.8755 19.8322 40.8755 20.8066V51.9249C40.8755 53.8736 40.2901 55.3554 39.1193 56.3704C37.9486 57.3447 36.5558 57.8319 34.941 57.8319C33.3665 57.8319 31.9939 57.3447 30.8231 56.3704C29.6928 55.3554 29.1276 53.8736 29.1276 51.9249V33.5949L24.8281 39.3192C24.1418 40.253 23.4353 40.9026 22.7086 41.2679C21.9819 41.6333 21.2149 41.816 20.4075 41.816Z" fill="black"/>
    </mask>
    <g mask="url(#mask0_961_2914)">
    <path d="M0 14.5342H20.4377V57.8319H0V14.5342Z" fill="#FF6B00"/>
    <path d="M20.4377 14.5342H40.8755V57.8319H20.4377V14.5342Z" fill="#FFB800"/>
    </g>
    <path d="M131.149 57.8316C129.731 57.8316 129.022 57.1081 129.022 55.661V44.2991C129.022 43.6199 129.229 43.0957 129.642 42.7266C130.071 42.3574 130.573 42.1729 131.149 42.1729C131.724 42.1729 132.226 42.3574 132.655 42.7266C133.083 43.0957 133.297 43.6199 133.297 44.2991V53.5127H135.8V44.2991C135.8 43.6199 136.014 43.0957 136.442 42.7266C136.87 42.3574 137.372 42.1729 137.948 42.1729C138.229 42.1729 138.494 42.2245 138.745 42.3279C139.011 42.4165 139.24 42.5568 139.432 42.7487C139.624 42.9259 139.779 43.1474 139.897 43.4131C140.015 43.6789 140.074 43.9742 140.074 44.2991V53.5127H142.577V44.2991C142.577 43.6199 142.791 43.0957 143.219 42.7266C143.647 42.3574 144.149 42.1729 144.725 42.1729C145.301 42.1729 145.796 42.3574 146.209 42.7266C146.637 43.0957 146.852 43.6199 146.852 44.2991L146.874 53.5127C148.291 53.5127 149 54.2362 149 55.6832V58.7618C149 59.4705 148.786 60.0021 148.358 60.3564C147.944 60.7108 147.45 60.888 146.874 60.888C146.298 60.888 145.796 60.7108 145.368 60.3564C144.939 60.0021 144.725 59.4705 144.725 58.7618V57.8316H131.149Z" fill="#4B2D10"/>
    <path d="M119.256 49.2602L123.287 43.2581C123.538 42.889 123.826 42.6158 124.151 42.4386C124.491 42.2614 124.845 42.1729 125.214 42.1729C125.48 42.1729 125.731 42.2245 125.967 42.3279C126.203 42.4165 126.417 42.5568 126.609 42.7487C126.801 42.9259 126.949 43.1474 127.052 43.4131C127.171 43.6789 127.23 43.9742 127.23 44.2991V55.8825C127.23 56.547 127.03 57.0564 126.632 57.4108C126.233 57.7504 125.76 57.9202 125.214 57.9202C124.638 57.9202 124.144 57.7504 123.73 57.4108C123.332 57.0564 123.132 56.547 123.132 55.8825V50.8106L119.123 56.8128C118.872 57.1967 118.57 57.4772 118.215 57.6544C117.876 57.8316 117.529 57.9202 117.174 57.9202C116.909 57.9202 116.65 57.8759 116.399 57.7873C116.163 57.6839 115.949 57.5436 115.757 57.3665C115.58 57.1745 115.432 56.9456 115.314 56.6799C115.196 56.4141 115.137 56.1114 115.137 55.7718V44.2105C115.137 43.546 115.336 43.044 115.735 42.7044C116.148 42.35 116.628 42.1729 117.174 42.1729C117.75 42.1729 118.237 42.35 118.636 42.7044C119.05 43.044 119.256 43.546 119.256 44.2105V49.2602Z" fill="#4B2D10"/>
    <path d="M106.414 55.7043C106.414 57.1809 105.698 57.9191 104.265 57.9191C102.818 57.9191 102.095 57.1956 102.095 55.7486V44.4088C102.095 42.9618 102.789 42.2383 104.177 42.2383H108.562C109.492 42.2383 110.297 42.3564 110.976 42.5927C111.67 42.8289 112.239 43.1685 112.682 43.6115C113.125 44.0397 113.449 44.5638 113.656 45.184C113.878 45.8041 113.988 46.4981 113.988 47.2659C113.988 47.9746 113.885 48.6391 113.678 49.2592C113.486 49.8646 113.206 50.3888 112.837 50.8317C112.468 51.2747 112.017 51.6291 111.486 51.8949C110.954 52.1459 110.349 52.2714 109.67 52.2714H108.916C108.208 52.2714 107.713 52.109 107.433 51.7841C107.152 51.4445 107.012 50.9942 107.012 50.4331C107.012 49.872 107.167 49.4586 107.477 49.1928C107.787 48.927 108.178 48.7941 108.651 48.7941H109.005C109.374 48.7941 109.662 48.6981 109.869 48.5062C110.076 48.3142 110.179 48.0189 110.179 47.6203C110.179 47.1773 110.053 46.8599 109.802 46.6679C109.551 46.4612 109.197 46.3578 108.739 46.3578H106.414V55.7043Z" fill="#4B2D10"/>
    <path d="M92.6476 51.4308H94.7295L93.7772 48.6179L92.6476 51.4308ZM95.9034 54.8194H91.2966L90.61 56.5248C90.4033 56.9973 90.1301 57.3517 89.7905 57.5879C89.4509 57.8094 89.0965 57.9202 88.7274 57.9202C88.4321 57.9202 88.1442 57.8759 87.8636 57.7873C87.5979 57.6839 87.3542 57.5436 87.1327 57.3665C86.9113 57.1893 86.7341 56.9752 86.6012 56.7242C86.4683 56.4731 86.4019 56.1926 86.4019 55.8825C86.4019 55.4986 86.4535 55.2107 86.5569 55.0188L91.8281 43.4574C92.0053 43.0735 92.2342 42.7635 92.5147 42.5272C92.7953 42.291 93.2309 42.1729 93.8215 42.1729C94.3826 42.1729 94.8034 42.291 95.0839 42.5272C95.3792 42.7635 95.6081 43.0809 95.7705 43.4796L100.577 55.0188C100.68 55.2255 100.732 55.5134 100.732 55.8825C100.732 56.1778 100.665 56.451 100.532 56.702C100.399 56.953 100.222 57.1671 100.001 57.3443C99.7941 57.5215 99.5504 57.6618 99.2699 57.7651C98.9894 57.8685 98.7088 57.9202 98.4283 57.9202C97.4833 57.9202 96.8484 57.455 96.5235 56.5248L95.9034 54.8194Z" fill="#4B2D10"/>
    <path d="M76.9502 46.5793V48.5948H80.1617C80.457 48.5948 80.6785 48.484 80.8262 48.2626C80.9738 48.0411 81.0476 47.7901 81.0476 47.5095C81.0476 47.2733 80.9738 47.0592 80.8262 46.8672C80.6933 46.6753 80.4718 46.5793 80.1617 46.5793H76.9502ZM76.9502 51.7398V53.5117H80.1617C80.4718 53.5117 80.6933 53.4157 80.8262 53.2237C80.9738 53.0318 81.0476 52.8325 81.0476 52.6257C81.0476 52.4043 80.9738 52.2049 80.8262 52.0277C80.6933 51.8358 80.4718 51.7398 80.1617 51.7398H76.9502ZM72.8307 44.4088C72.8307 42.9618 73.4804 42.2383 74.7797 42.2383H81.5792C82.1255 42.2383 82.6054 42.3564 83.0188 42.5927C83.4323 42.8141 83.7792 43.1168 84.0598 43.5007C84.3403 43.8699 84.547 44.2981 84.6799 44.7853C84.8276 45.2726 84.9014 45.7672 84.9014 46.2692C84.9014 47.1552 84.7095 47.9377 84.3256 48.6169C83.9564 49.2814 83.3732 49.7022 82.5759 49.8794C82.9745 49.9237 83.3289 50.0566 83.639 50.278C83.9638 50.4995 84.237 50.7875 84.4584 51.1418C84.6799 51.4962 84.8497 51.9022 84.9679 52.36C85.1007 52.8177 85.1672 53.2976 85.1672 53.7996C85.1672 54.3459 85.0934 54.8627 84.9457 55.35C84.798 55.8372 84.5692 56.2654 84.2591 56.6346C83.949 57.0037 83.543 57.299 83.041 57.5205C82.5537 57.7272 81.9705 57.8305 81.2913 57.8305H74.8905C73.5173 57.8305 72.8307 57.0997 72.8307 55.6379V44.4088Z" fill="#4B2D10"/>
    <path d="M55.3693 50.0342C55.3693 48.9268 55.576 47.8932 55.9894 46.9334C56.4028 45.9737 56.9713 45.1321 57.6948 44.4086C58.4183 43.6851 59.2599 43.1166 60.2197 42.7032C61.1795 42.2897 62.213 42.083 63.3204 42.083C64.4278 42.083 65.4614 42.2897 66.4212 42.7032C67.3957 43.1166 68.2373 43.6851 68.9461 44.4086C69.6696 45.1321 70.238 45.9737 70.6515 46.9334C71.0797 47.8932 71.2938 48.9268 71.2938 50.0342C71.2938 51.1416 71.0797 52.1752 70.6515 53.1349C70.238 54.0947 69.6696 54.9363 68.9461 55.6598C68.2373 56.3833 67.3957 56.9518 66.4212 57.3652C65.4614 57.7786 64.4278 57.9853 63.3204 57.9853C62.213 57.9853 61.1795 57.7786 60.2197 57.3652C59.2599 56.9518 58.4183 56.3833 57.6948 55.6598C56.9713 54.9363 56.4028 54.0947 55.9894 53.1349C55.576 52.1752 55.3693 51.1416 55.3693 50.0342ZM59.7324 50.1006C59.7324 50.6026 59.8284 51.0751 60.0204 51.5181C60.2123 51.9463 60.4707 52.3228 60.7955 52.6477C61.1204 52.9725 61.4969 53.2309 61.9251 53.4228C62.3681 53.6 62.8406 53.6886 63.3426 53.6886C63.8446 53.6886 64.3097 53.6 64.7379 53.4228C65.1809 53.2309 65.5648 52.9725 65.8896 52.6477C66.2292 52.3228 66.495 51.9463 66.6869 51.5181C66.8789 51.0751 66.9749 50.6026 66.9749 50.1006C66.9749 49.5986 66.8789 49.1261 66.6869 48.6831C66.495 48.2402 66.2292 47.8563 65.8896 47.5314C65.5648 47.2066 65.1809 46.9482 64.7379 46.7563C64.3097 46.5643 63.8446 46.4683 63.3426 46.4683C62.8406 46.4683 62.3681 46.5643 61.9251 46.7563C61.4969 46.9482 61.1204 47.2066 60.7955 47.5314C60.4707 47.8563 60.2123 48.2402 60.0204 48.6831C59.8284 49.1261 59.7324 49.5986 59.7324 50.1006Z" fill="#4B2D10"/>
    <path d="M51.6997 55.7708C51.6997 56.4795 51.4856 57.0185 51.0574 57.3876C50.6292 57.742 50.1198 57.9191 49.5292 57.9191C48.9533 57.9191 48.4513 57.742 48.0231 57.3876C47.6097 57.0185 47.403 56.4795 47.403 55.7708V46.5793H45.8969C45.2177 46.5793 44.6861 46.3652 44.3022 45.937C43.9331 45.5088 43.7485 44.9994 43.7485 44.4088C43.7485 43.8182 43.9331 43.3088 44.3022 42.8806C44.6861 42.4524 45.2177 42.2383 45.8969 42.2383H53.1615C53.8407 42.2383 54.3722 42.4524 54.7561 42.8806C55.14 43.3088 55.332 43.8182 55.332 44.4088C55.332 44.9994 55.14 45.5088 54.7561 45.937C54.3722 46.3652 53.8407 46.5793 53.1615 46.5793H51.6997V55.7708Z" fill="#4B2D10"/>
    <path d="M65.5729 22.8051L69.6039 16.803C69.8549 16.4338 70.1428 16.1607 70.4677 15.9835C70.8073 15.8063 71.1616 15.7177 71.5308 15.7177C71.7965 15.7177 72.0475 15.7694 72.2838 15.8727C72.52 15.9613 72.7341 16.1016 72.9261 16.2936C73.118 16.4707 73.2657 16.6922 73.3691 16.958C73.4872 17.2238 73.5462 17.5191 73.5462 17.8439V29.4274C73.5462 30.0918 73.3469 30.6012 72.9482 30.9556C72.5496 31.2952 72.0771 31.465 71.5308 31.465C70.9549 31.465 70.4603 31.2952 70.0468 30.9556C69.6482 30.6012 69.4488 30.0918 69.4488 29.4274V24.3555L65.44 30.3576C65.189 30.7415 64.8863 31.0221 64.532 31.1992C64.1924 31.3764 63.8454 31.465 63.491 31.465C63.2252 31.465 62.9668 31.4207 62.7158 31.3321C62.4796 31.2288 62.2655 31.0885 62.0735 30.9113C61.8963 30.7194 61.7487 30.4905 61.6306 30.2247C61.5124 29.9589 61.4534 29.6563 61.4534 29.3166V17.7553C61.4534 17.0909 61.6527 16.5889 62.0514 16.2493C62.4648 15.8949 62.9447 15.7177 63.491 15.7177C64.0668 15.7177 64.5541 15.8949 64.9528 16.2493C65.3662 16.5889 65.5729 17.0909 65.5729 17.7553V22.8051ZM70.1576 11.2881C70.4529 11.2881 70.7113 11.4062 70.9328 11.6425C71.1542 11.8639 71.265 12.1297 71.265 12.4398C71.265 12.8385 71.1395 13.1928 70.8885 13.5029C70.6375 13.7982 70.32 14.0566 69.9361 14.2781C69.567 14.4848 69.1609 14.6472 68.7179 14.7653C68.2898 14.8687 67.8911 14.9204 67.522 14.9204C67.1381 14.9204 66.7246 14.8687 66.2817 14.7653C65.8535 14.6472 65.4474 14.4848 65.0635 14.2781C64.6944 14.0566 64.3843 13.7982 64.1333 13.5029C63.8823 13.1928 63.7568 12.8385 63.7568 12.4398C63.7568 12.1297 63.8675 11.8639 64.089 11.6425C64.3105 11.4062 64.5689 11.2881 64.8642 11.2881C65.2038 11.2881 65.4548 11.3619 65.6172 11.5096C65.7796 11.6572 65.9273 11.827 66.0602 12.019C66.2078 12.1962 66.3776 12.3586 66.5696 12.5062C66.7763 12.6539 67.0938 12.7277 67.522 12.7277C67.9354 12.7277 68.2381 12.6539 68.43 12.5062C68.6367 12.3586 68.8065 12.1962 68.9394 12.019C69.0871 11.827 69.2421 11.6572 69.4045 11.5096C69.567 11.3619 69.818 11.2881 70.1576 11.2881Z" fill="#4B2D10"/>
    <path d="M44.0142 23.5791C44.0142 22.4717 44.2209 21.4381 44.6343 20.4784C45.0477 19.5186 45.6162 18.677 46.3397 17.9535C47.0632 17.23 47.9048 16.6615 48.8646 16.2481C49.8243 15.8346 50.8579 15.6279 51.9653 15.6279C53.0727 15.6279 54.1063 15.8346 55.0661 16.2481C56.0406 16.6615 56.8822 17.23 57.591 17.9535C58.3145 18.677 58.8829 19.5186 59.2964 20.4784C59.7246 21.4381 59.9387 22.4717 59.9387 23.5791C59.9387 24.6865 59.7246 25.7201 59.2964 26.6798C58.8829 27.6396 58.3145 28.4812 57.591 29.2047C56.8822 29.9282 56.0406 30.4967 55.0661 30.9101C54.1063 31.3236 53.0727 31.5303 51.9653 31.5303C50.8579 31.5303 49.8243 31.3236 48.8646 30.9101C47.9048 30.4967 47.0632 29.9282 46.3397 29.2047C45.6162 28.4812 45.0477 27.6396 44.6343 26.6798C44.2209 25.7201 44.0142 24.6865 44.0142 23.5791ZM48.3773 23.6455C48.3773 24.1476 48.4733 24.6201 48.6653 25.063C48.8572 25.4912 49.1156 25.8677 49.4404 26.1926C49.7653 26.5174 50.1418 26.7758 50.57 26.9678C51.013 27.1449 51.4855 27.2335 51.9875 27.2335C52.4895 27.2335 52.9546 27.1449 53.3828 26.9678C53.8258 26.7758 54.2097 26.5174 54.5345 26.1926C54.8741 25.8677 55.1399 25.4912 55.3318 25.063C55.5238 24.6201 55.6198 24.1476 55.6198 23.6455C55.6198 23.1435 55.5238 22.671 55.3318 22.2281C55.1399 21.7851 54.8741 21.4012 54.5345 21.0764C54.2097 20.7515 53.8258 20.4931 53.3828 20.3012C52.9546 20.1092 52.4895 20.0133 51.9875 20.0133C51.4855 20.0133 51.013 20.1092 50.57 20.3012C50.1418 20.4931 49.7653 20.7515 49.4404 21.0764C49.1156 21.4012 48.8572 21.7851 48.6653 22.2281C48.4733 22.671 48.3773 23.1435 48.3773 23.6455Z" fill="#4B2D10"/>
    </svg>
    