<svg width="28" height="28" viewBox="0 0 28 28" fill="none" xmlns="http://www.w3.org/2000/svg">
<path d="M14 27C6.837 27 1 21.163 1 14C1 6.837 6.837 1 14 1C21.163 1 27 6.252 27 12.7C27 17.003 23.503 20.5 19.2 20.5H16.899C16.535 20.5 16.249 20.786 16.249 21.15C16.249 21.306 16.314 21.449 16.418 21.579C16.951 22.19 17.25 22.957 17.25 23.75C17.25 24.612 16.9076 25.4386 16.2981 26.0481C15.6886 26.6576 14.862 27 14 27ZM14 3.6C8.267 3.6 3.6 8.267 3.6 14C3.6 19.733 8.267 24.4 14 24.4C14.364 24.4 14.65 24.114 14.65 23.75C14.646 23.5814 14.5814 23.4199 14.468 23.295C13.935 22.697 13.649 21.93 13.649 21.15C13.649 20.288 13.9914 19.4614 14.6009 18.8519C15.2104 18.2424 16.037 17.9 16.899 17.9H19.2C22.073 17.9 24.4 15.573 24.4 12.7C24.4 7.682 19.733 3.6 14 3.6Z" fill="#4B2D10"/>
<path d="M6.85 15.3C7.92695 15.3 8.8 14.427 8.8 13.35C8.8 12.273 7.92695 11.4 6.85 11.4C5.77304 11.4 4.9 12.273 4.9 13.35C4.9 14.427 5.77304 15.3 6.85 15.3Z" fill="#4B2D10"/>
<path d="M10.75 10.1C11.827 10.1 12.7 9.22695 12.7 8.15C12.7 7.07304 11.827 6.2 10.75 6.2C9.67304 6.2 8.8 7.07304 8.8 8.15C8.8 9.22695 9.67304 10.1 10.75 10.1Z" fill="#4B2D10"/>
<path d="M17.25 10.1C18.327 10.1 19.2 9.22695 19.2 8.15C19.2 7.07304 18.327 6.2 17.25 6.2C16.173 6.2 15.3 7.07304 15.3 8.15C15.3 9.22695 16.173 10.1 17.25 10.1Z" fill="#4B2D10"/>
<path d="M21.15 15.3C22.227 15.3 23.1 14.427 23.1 13.35C23.1 12.273 22.227 11.4 21.15 11.4C20.073 11.4 19.2 12.273 19.2 13.35C19.2 14.427 20.073 15.3 21.15 15.3Z" fill="#4B2D10"/>
<path d="M14 27C6.837 27 1 21.163 1 14C1 6.837 6.837 1 14 1C21.163 1 27 6.252 27 12.7C27 17.003 23.503 20.5 19.2 20.5H16.899C16.535 20.5 16.249 20.786 16.249 21.15C16.249 21.306 16.314 21.449 16.418 21.579C16.951 22.19 17.25 22.957 17.25 23.75C17.25 24.612 16.9076 25.4386 16.2981 26.0481C15.6886 26.6576 14.862 27 14 27ZM14 3.6C8.267 3.6 3.6 8.267 3.6 14C3.6 19.733 8.267 24.4 14 24.4C14.364 24.4 14.65 24.114 14.65 23.75C14.646 23.5814 14.5814 23.4199 14.468 23.295C13.935 22.697 13.649 21.93 13.649 21.15C13.649 20.288 13.9914 19.4614 14.6009 18.8519C15.2104 18.2424 16.037 17.9 16.899 17.9H19.2C22.073 17.9 24.4 15.573 24.4 12.7C24.4 7.682 19.733 3.6 14 3.6Z" stroke="#4B2D10"/>
<path d="M6.85 15.3C7.92695 15.3 8.8 14.427 8.8 13.35C8.8 12.273 7.92695 11.4 6.85 11.4C5.77304 11.4 4.9 12.273 4.9 13.35C4.9 14.427 5.77304 15.3 6.85 15.3Z" stroke="#4B2D10"/>
<path d="M10.75 10.1C11.827 10.1 12.7 9.22695 12.7 8.15C12.7 7.07304 11.827 6.2 10.75 6.2C9.67304 6.2 8.8 7.07304 8.8 8.15C8.8 9.22695 9.67304 10.1 10.75 10.1Z" stroke="#4B2D10"/>
<path d="M17.25 10.1C18.327 10.1 19.2 9.22695 19.2 8.15C19.2 7.07304 18.327 6.2 17.25 6.2C16.173 6.2 15.3 7.07304 15.3 8.15C15.3 9.22695 16.173 10.1 17.25 10.1Z" stroke="#4B2D10"/>
<path d="M21.15 15.3C22.227 15.3 23.1 14.427 23.1 13.35C23.1 12.273 22.227 11.4 21.15 11.4C20.073 11.4 19.2 12.273 19.2 13.35C19.2 14.427 20.073 15.3 21.15 15.3Z" stroke="#4B2D10"/>
</svg>
