<svg width="25" height="26" viewBox="0 0 25 26" fill="none" xmlns="http://www.w3.org/2000/svg">
<path fill-rule="evenodd" clip-rule="evenodd" d="M1.56252 0.5C1.14811 0.5 0.750681 0.688137 0.457652 1.02302C0.164622 1.35791 0 1.81211 0 2.28571V23.7143C0 24.1879 0.164622 24.6421 0.457652 24.977C0.750681 25.3119 1.14811 25.5 1.56252 25.5C1.97693 25.5 2.37436 25.3119 2.66739 24.977C2.96042 24.6421 3.12504 24.1879 3.12504 23.7143V2.28571C3.12504 1.81211 2.96042 1.35791 2.66739 1.02302C2.37436 0.688137 1.97693 0.5 1.56252 0.5ZM17.6455 17.0946C17.3609 17.4314 17.2034 17.8825 17.207 18.3507C17.2106 18.8189 17.3749 19.2668 17.6646 19.5979C17.9543 19.929 18.3462 20.1168 18.7559 20.1208C19.1656 20.1249 19.5603 19.9449 19.855 19.6196L24.5425 14.2625C24.8354 13.9276 25 13.4735 25 13C25 12.5265 24.8354 12.0724 24.5425 11.7375L19.855 6.38036C19.7108 6.2098 19.5384 6.07376 19.3478 5.98018C19.1571 5.88659 18.9521 5.83733 18.7446 5.83527C18.5372 5.83321 18.3314 5.87839 18.1394 5.96818C17.9473 6.05796 17.7729 6.19056 17.6262 6.35822C17.4795 6.52589 17.3634 6.72527 17.2849 6.94473C17.2063 7.16418 17.1668 7.39932 17.1686 7.63643C17.1704 7.87354 17.2135 8.10786 17.2954 8.32572C17.3773 8.54359 17.4963 8.74063 17.6455 8.90536L19.6659 11.2143H7.8126C7.3982 11.2143 7.00076 11.4024 6.70774 11.7373C6.41471 12.0722 6.25008 12.5264 6.25008 13C6.25008 13.4736 6.41471 13.9278 6.70774 14.2627C7.00076 14.5976 7.3982 14.7857 7.8126 14.7857H19.6659L17.6455 17.0946Z" fill="#4B2D10"/>
</svg>
