<svg width="25" height="22" viewBox="0 0 25 22" fill="none" xmlns="http://www.w3.org/2000/svg">
    <path
        d="M12.384 4.16931L11.8033 4.72499C11.8786 4.80255 11.9688 4.86425 12.0685 4.90639C12.1683 4.94853 12.2756 4.97025 12.384 4.97025C12.4924 4.97025 12.5997 4.94853 12.6994 4.90639C12.7992 4.86425 12.8894 4.80255 12.9646 4.72499L12.384 4.16931ZM9.61621 17.8711C7.98608 16.5941 6.20434 15.347 4.79035 13.7655C3.40538 12.2138 2.43763 10.4047 2.43763 8.05586H0.824707C0.824707 10.9048 2.01827 13.0784 3.58496 14.8298C5.12261 16.5503 7.08392 17.9288 8.61727 19.1299L9.61621 17.8711ZM2.43763 8.05586C2.43763 5.75834 3.7441 3.83056 5.52799 3.01948C7.26134 2.23191 9.5904 2.44029 11.8033 4.72499L12.9646 3.6147C10.3409 0.903618 7.29145 0.455868 4.85701 1.56188C2.47634 2.64439 0.824707 5.15778 0.824707 8.05586H2.43763ZM8.61727 19.1299C9.16889 19.5616 9.7603 20.0211 10.3592 20.3695C10.9582 20.7168 11.642 21 12.384 21V19.3971C12.0506 19.3971 11.6592 19.2688 11.1732 18.9857C10.6861 18.7035 10.1818 18.3146 9.61621 17.8711L8.61727 19.1299ZM16.1507 19.1299C17.684 17.9277 19.6454 16.5514 21.183 14.8298C22.7497 13.0773 23.9433 10.9048 23.9433 8.05586H22.3303C22.3303 10.4047 21.3626 12.2138 19.9776 13.7655C18.5636 15.347 16.7819 16.5941 15.1518 17.8711L16.1507 19.1299ZM23.9433 8.05586C23.9433 5.15778 22.2927 2.64439 19.911 1.56188C17.4765 0.455868 14.4292 0.903618 11.8033 3.61363L12.9646 4.72499C15.1776 2.44136 17.5066 2.23191 19.24 3.01948C21.0239 3.83056 22.3303 5.75727 22.3303 8.05586H23.9433ZM15.1518 17.8711C14.5862 18.3146 14.0819 18.7035 13.5948 18.9857C13.1087 19.2678 12.7173 19.3971 12.384 19.3971V21C13.1259 21 13.8098 20.7168 14.4087 20.3695C15.0087 20.0211 15.5991 19.5616 16.1507 19.1299L15.1518 17.8711Z"
        fill="#4B2D10" />
    <path
        d="M12.0685 4.90639C11.9688 4.86425 11.8786 4.80255 11.8033 4.72499C9.5904 2.44029 7.26134 2.23191 5.52799 3.01948C3.7441 3.83056 2.43763 5.75834 2.43763 8.05586C2.43763 10.4047 3.40538 12.2138 4.79035 13.7655C6.20434 15.347 7.98608 16.5941 9.61621 17.8711C10.1818 18.3146 10.6861 18.7035 11.1732 18.9857C11.6592 19.2688 12.0506 19.3971 12.384 19.3971C12.7173 19.3971 13.1087 19.2678 13.5948 18.9857C14.0819 18.7035 14.5862 18.3146 15.1518 17.8711C16.7819 16.5941 18.5636 15.347 19.9776 13.7655C21.3626 12.2138 22.3303 10.4047 22.3303 8.05586C22.3303 5.75727 21.0239 3.83056 19.24 3.01948C17.5066 2.23191 15.1776 2.44136 12.9646 4.72499C12.8894 4.80255 12.7992 4.86425 12.6994 4.90639C12.5997 4.94853 12.4924 4.97025 12.384 4.97025C12.2756 4.97025 12.1683 4.94853 12.0685 4.90639Z"
        fill="#FFF4D9" />
    <path
        d="M9.11728 18.4994L9.61621 17.8711M9.61621 17.8711C7.98608 16.5941 6.20434 15.347 4.79035 13.7655C3.40538 12.2138 2.43763 10.4047 2.43763 8.05586M9.61621 17.8711L8.61727 19.1299M9.61621 17.8711C10.1818 18.3146 10.6861 18.7035 11.1732 18.9857C11.6592 19.2688 12.0506 19.3971 12.384 19.3971M11.8033 4.72499L12.384 4.16931L12.9646 4.72499M11.8033 4.72499C11.8786 4.80255 11.9688 4.86425 12.0685 4.90639C12.1683 4.94854 12.2756 4.97025 12.384 4.97025C12.4924 4.97025 12.5997 4.94854 12.6994 4.90639C12.7992 4.86425 12.8894 4.80255 12.9646 4.72499M11.8033 4.72499C9.5904 2.44029 7.26134 2.23191 5.52799 3.01948C3.7441 3.83056 2.43763 5.75834 2.43763 8.05586M11.8033 4.72499L12.9646 3.6147C10.3409 0.903618 7.29145 0.455868 4.85701 1.56188C2.47634 2.64439 0.824707 5.15778 0.824707 8.05586M12.9646 4.72499L11.8033 3.61363C14.4292 0.903618 17.4765 0.455868 19.911 1.56188C22.2927 2.64439 23.9433 5.15778 23.9433 8.05586M12.9646 4.72499C15.1776 2.44136 17.5066 2.23191 19.24 3.01948C21.0239 3.83056 22.3303 5.75727 22.3303 8.05586M15.6507 18.4994L16.1507 19.1299M16.1507 19.1299C17.684 17.9277 19.6454 16.5514 21.183 14.8298C22.7497 13.0773 23.9433 10.9048 23.9433 8.05586M16.1507 19.1299L15.1518 17.8711M16.1507 19.1299C15.5991 19.5616 15.0087 20.0211 14.4087 20.3695C13.8098 20.7168 13.1259 21 12.384 21M2.43763 8.05586H0.824707M0.824707 8.05586C0.824707 10.9048 2.01827 13.0784 3.58496 14.8298C5.12261 16.5503 7.08392 17.9288 8.61727 19.1299M8.61727 19.1299C9.16889 19.5616 9.7603 20.0211 10.3592 20.3695C10.9582 20.7168 11.642 21 12.384 21M12.384 21V19.3971M12.384 19.3971C12.7173 19.3971 13.1087 19.2678 13.5948 18.9857C14.0819 18.7035 14.5862 18.3146 15.1518 17.8711M23.9433 8.05586H22.3303M22.3303 8.05586C22.3303 10.4047 21.3626 12.2138 19.9776 13.7655C18.5636 15.347 16.7819 16.5941 15.1518 17.8711"
        stroke="#4B2D10" />
</svg>
    