<svg width="36" height="32" viewBox="0 0 36 32" fill="none" xmlns="http://www.w3.org/2000/svg">
    <path d="M18 5.75396L17.146 6.58748C17.2567 6.70383 17.3893 6.79638 17.5361 6.85959C17.6828 6.9228 17.8406 6.95538 18 6.95538C18.1594 6.95538 18.3172 6.9228 18.4639 6.85959C18.6107 6.79638 18.7433 6.70383 18.854 6.58748L18 5.75396ZM13.9295 26.3066C11.5321 24.3911 8.91172 22.5205 6.83219 20.1482C4.79535 17.8208 3.37209 15.107 3.37209 11.5838H1C1 15.8572 2.75535 19.1175 5.05944 21.7447C7.32084 24.3254 10.2053 26.3932 12.4604 28.1949L13.9295 26.3066ZM3.37209 11.5838C3.37209 8.13751 5.29349 5.24583 7.91702 4.02921C10.4662 2.84786 13.8915 3.16043 17.146 6.58748L18.854 4.92204C14.9953 0.855427 10.5105 0.183802 6.93023 1.84283C3.42902 3.46659 1 7.23666 1 11.5838H3.37209ZM12.4604 28.1949C13.2716 28.8425 14.1414 29.5317 15.0222 30.0543C15.9031 30.5752 16.9088 31 18 31V28.5956C17.5098 28.5956 16.9341 28.4033 16.2193 27.9785C15.503 27.5553 14.7613 26.9719 13.9295 26.3066L12.4604 28.1949ZM23.5396 28.1949C25.7947 26.3916 28.6792 24.327 30.9406 21.7447C33.2447 19.1159 35 15.8572 35 11.5838H32.6279C32.6279 15.107 31.2047 17.8208 29.1678 20.1482C27.0883 22.5205 24.4679 24.3911 22.0705 26.3066L23.5396 28.1949ZM35 11.5838C35 7.23666 32.5726 3.46659 29.0698 1.84283C25.4895 0.183802 21.0078 0.855427 17.146 4.92044L18.854 6.58748C22.1085 3.16203 25.5338 2.84786 28.083 4.02921C30.7065 5.24583 32.6279 8.1359 32.6279 11.5838H35ZM22.0705 26.3066C21.2387 26.9719 20.497 27.5553 19.7807 27.9785C19.0659 28.4017 18.4902 28.5956 18 28.5956V31C19.0912 31 20.0969 30.5752 20.9778 30.0543C21.8602 29.5317 22.7284 28.8425 23.5396 28.1949L22.0705 26.3066Z" fill="#B8B8B8"/>
    <path d="M13.1957 27.2492L13.9295 26.3066M13.9295 26.3066C11.5321 24.3911 8.91172 22.5205 6.83219 20.1482C4.79535 17.8208 3.37209 15.107 3.37209 11.5838M13.9295 26.3066L12.4604 28.1949M13.9295 26.3066C14.7613 26.9719 15.503 27.5553 16.2193 27.9785C16.9341 28.4033 17.5098 28.5956 18 28.5956M17.146 6.58748L18 5.75396L18.854 6.58748M17.146 6.58748C17.2567 6.70383 17.3893 6.79638 17.5361 6.85959C17.6828 6.9228 17.8406 6.95538 18 6.95538C18.1594 6.95538 18.3172 6.9228 18.4639 6.85959C18.6107 6.79638 18.7433 6.70383 18.854 6.58748M17.146 6.58748C13.8915 3.16043 10.4662 2.84786 7.91702 4.02921C5.29349 5.24583 3.37209 8.13751 3.37209 11.5838M17.146 6.58748L18.854 4.92204C14.9953 0.855427 10.5105 0.183802 6.93023 1.84283C3.42902 3.46659 1 7.23666 1 11.5838M18.854 6.58748L17.146 4.92044C21.0078 0.855427 25.4895 0.183802 29.0698 1.84283C32.5726 3.46659 35 7.23666 35 11.5838M18.854 6.58748C22.1085 3.16203 25.5338 2.84786 28.083 4.02921C30.7065 5.24583 32.6279 8.1359 32.6279 11.5838M22.8043 27.2492L23.5396 28.1949M23.5396 28.1949C25.7947 26.3916 28.6792 24.327 30.9406 21.7447C33.2447 19.1159 35 15.8572 35 11.5838M23.5396 28.1949L22.0705 26.3066M23.5396 28.1949C22.7284 28.8425 21.8602 29.5317 20.9778 30.0543C20.0969 30.5752 19.0912 31 18 31M3.37209 11.5838H1M1 11.5838C1 15.8572 2.75535 19.1175 5.05944 21.7447C7.32084 24.3254 10.2053 26.3932 12.4604 28.1949M12.4604 28.1949C13.2716 28.8425 14.1414 29.5317 15.0222 30.0543C15.9031 30.5752 16.9088 31 18 31M18 31V28.5956M18 28.5956C18.4902 28.5956 19.0659 28.4017 19.7807 27.9785C20.497 27.5553 21.2387 26.9719 22.0705 26.3066M35 11.5838H32.6279M32.6279 11.5838C32.6279 15.107 31.2047 17.8208 29.1678 20.1482C27.0883 22.5205 24.4679 24.3911 22.0705 26.3066" stroke="#B8B8B8"/>
    </svg>
    