<svg width="330" height="135" viewBox="0 0 330 135" fill="none" xmlns="http://www.w3.org/2000/svg">
<circle cx="14.0824" cy="14.0824" r="14.0824" fill="#FF6B00"/>
<circle cx="76.4473" cy="14.0824" r="14.0824" fill="#FFB800"/>
<mask id="mask0_29_45" style="mask-type:alpha" maskUnits="userSpaceOnUse" x="0" y="32" width="91" height="97">
<path d="M45.1977 92.611C41.7106 92.611 38.5365 90.7677 35.6753 87.0812L26.0188 74.4032V115C26.0188 119.226 24.7224 122.463 22.1294 124.711C19.5365 126.958 16.5412 128.082 13.1435 128.082C9.56706 128.082 6.48236 127.003 3.88941 124.845C1.29647 122.598 0 119.316 0 115V46.0801C0 43.9221 0.357647 41.9889 1.07294 40.2806C1.87765 38.4823 2.90588 36.9987 4.15765 35.8298C5.40941 34.6609 6.84 33.7617 8.44942 33.1323C10.1482 32.5029 11.8918 32.1882 13.68 32.1882C16.0047 32.1882 18.3294 32.7727 20.6541 33.9416C22.9788 35.0205 24.9906 36.639 26.6894 38.797L45.1977 62.6694L63.84 38.797C65.5389 36.639 67.5059 35.0205 69.7412 33.9416C72.0659 32.7727 74.3906 32.1882 76.7153 32.1882C78.5036 32.1882 80.2024 32.5029 81.8118 33.1323C83.5106 33.7617 84.9859 34.6609 86.2377 35.8298C87.5789 36.9987 88.6071 38.4823 89.3224 40.2806C90.1271 41.9889 90.5295 43.9221 90.5295 46.0801V115C90.5295 119.316 89.233 122.598 86.64 124.845C84.0471 127.003 80.9624 128.082 77.3859 128.082C73.8989 128.082 70.8589 127.003 68.2659 124.845C65.7624 122.598 64.5106 119.316 64.5106 115V74.4032L54.9883 87.0812C53.4683 89.1493 51.9036 90.5879 50.2941 91.3971C48.6847 92.2064 46.9859 92.611 45.1977 92.611Z" fill="black"/>
</mask>
<g mask="url(#mask0_29_45)">
<path d="M0 32.1882H45.2647V128.082H0V32.1882Z" fill="#FF6B00"/>
<path d="M45.2649 32.1882H90.5296V128.082H45.2649V32.1882Z" fill="#FFB800"/>
</g>
<path d="M290.463 128.082C287.324 128.082 285.754 126.48 285.754 123.275V98.1109C285.754 96.6066 286.212 95.4457 287.128 94.6282C288.076 93.8106 289.188 93.4019 290.463 93.4019C291.739 93.4019 292.85 93.8106 293.799 94.6282C294.747 95.4457 295.221 96.6066 295.221 98.1109V118.517H300.764V98.1109C300.764 96.6066 301.238 95.4457 302.187 94.6282C303.135 93.8106 304.247 93.4019 305.522 93.4019C306.144 93.4019 306.732 93.5163 307.288 93.7452C307.877 93.9414 308.384 94.2521 308.809 94.6772C309.234 95.0696 309.577 95.5602 309.839 96.1488C310.101 96.7374 310.232 97.3915 310.232 98.1109V118.517H315.774V98.1109C315.774 96.6066 316.249 95.4457 317.197 94.6282C318.145 93.8106 319.257 93.4019 320.533 93.4019C321.808 93.4019 322.903 93.8106 323.819 94.6282C324.767 95.4457 325.242 96.6066 325.242 98.1109L325.291 118.517C328.43 118.517 330 120.119 330 123.324V130.142C330 131.712 329.526 132.889 328.577 133.674C327.662 134.459 326.566 134.851 325.291 134.851C324.015 134.851 322.903 134.459 321.955 133.674C321.007 132.889 320.533 131.712 320.533 130.142V128.082H290.463Z" fill="#4B2D10"/>
<path d="M264.124 109.099L273.052 95.8054C273.608 94.9879 274.246 94.3829 274.965 93.9905C275.717 93.5981 276.502 93.4019 277.32 93.4019C277.908 93.4019 278.464 93.5163 278.987 93.7452C279.511 93.9414 279.985 94.2521 280.41 94.6772C280.835 95.0696 281.162 95.5602 281.391 96.1488C281.652 96.7374 281.783 97.3915 281.783 98.1109V123.766C281.783 125.237 281.342 126.365 280.459 127.15C279.576 127.902 278.529 128.278 277.32 128.278C276.044 128.278 274.949 127.902 274.033 127.15C273.15 126.365 272.709 125.237 272.709 123.766V112.532L263.83 125.826C263.274 126.676 262.604 127.297 261.819 127.69C261.067 128.082 260.298 128.278 259.513 128.278C258.925 128.278 258.352 128.18 257.796 127.984C257.273 127.755 256.799 127.444 256.374 127.052C255.982 126.627 255.655 126.12 255.393 125.531C255.131 124.943 255 124.272 255 123.52V97.9147C255 96.4431 255.442 95.3313 256.325 94.5791C257.241 93.7943 258.303 93.4019 259.513 93.4019C260.789 93.4019 261.868 93.7943 262.751 94.5791C263.666 95.3313 264.124 96.4431 264.124 97.9147V109.099Z" fill="#4B2D10"/>
<path d="M235.681 123.373C235.681 126.643 234.095 128.278 230.923 128.278C227.718 128.278 226.116 126.676 226.116 123.471V98.3562C226.116 95.1515 227.653 93.5491 230.727 93.5491H240.439C242.499 93.5491 244.282 93.8107 245.786 94.3339C247.323 94.8571 248.582 95.6093 249.563 96.5903C250.544 97.5387 251.263 98.6996 251.721 100.073C252.212 101.447 252.457 102.984 252.457 104.684C252.457 106.254 252.228 107.725 251.77 109.099C251.345 110.44 250.724 111.601 249.906 112.582C249.089 113.563 248.091 114.347 246.914 114.936C245.737 115.492 244.396 115.77 242.892 115.77H241.224C239.654 115.77 238.559 115.41 237.937 114.691C237.316 113.939 237.005 112.941 237.005 111.699C237.005 110.456 237.349 109.54 238.036 108.952C238.722 108.363 239.589 108.069 240.635 108.069H241.42C242.238 108.069 242.875 107.856 243.333 107.431C243.791 107.006 244.02 106.352 244.02 105.469C244.02 104.488 243.742 103.785 243.186 103.36C242.63 102.902 241.845 102.673 240.832 102.673H235.681V123.373Z" fill="#4B2D10"/>
<path d="M205.193 113.906H209.804L207.694 107.676L205.193 113.906ZM212.404 121.411H202.201L200.68 125.188C200.222 126.235 199.617 127.019 198.865 127.543C198.113 128.033 197.328 128.278 196.51 128.278C195.856 128.278 195.219 128.18 194.597 127.984C194.009 127.755 193.469 127.444 192.979 127.052C192.488 126.66 192.096 126.185 191.801 125.63C191.507 125.074 191.36 124.452 191.36 123.766C191.36 122.915 191.474 122.278 191.703 121.852L203.378 96.2469C203.77 95.3967 204.277 94.7099 204.898 94.1867C205.52 93.6635 206.484 93.4019 207.793 93.4019C209.035 93.4019 209.967 93.6635 210.589 94.1867C211.243 94.7099 211.749 95.413 212.109 96.296L222.754 121.852C222.983 122.31 223.097 122.948 223.097 123.766C223.097 124.42 222.95 125.025 222.656 125.58C222.361 126.136 221.969 126.611 221.478 127.003C221.02 127.395 220.481 127.706 219.86 127.935C219.238 128.164 218.617 128.278 217.996 128.278C215.903 128.278 214.496 127.248 213.777 125.188L212.404 121.411Z" fill="#4B2D10"/>
<path d="M170.427 103.163V107.627H177.539C178.193 107.627 178.684 107.382 179.011 106.891C179.338 106.401 179.502 105.845 179.502 105.224C179.502 104.7 179.338 104.226 179.011 103.801C178.717 103.376 178.226 103.163 177.539 103.163H170.427ZM170.427 114.593V118.517H177.539C178.226 118.517 178.717 118.304 179.011 117.879C179.338 117.454 179.502 117.013 179.502 116.555C179.502 116.064 179.338 115.623 179.011 115.23C178.717 114.805 178.226 114.593 177.539 114.593H170.427ZM161.303 98.3562C161.303 95.1515 162.742 93.5491 165.62 93.5491H180.679C181.889 93.5491 182.952 93.8107 183.867 94.3339C184.783 94.8244 185.551 95.4948 186.173 96.3451C186.794 97.1626 187.252 98.111 187.546 99.1901C187.873 100.269 188.037 101.365 188.037 102.477C188.037 104.439 187.612 106.172 186.761 107.676C185.944 109.148 184.652 110.08 182.886 110.472C183.769 110.57 184.554 110.865 185.241 111.355C185.96 111.846 186.565 112.483 187.056 113.268C187.546 114.053 187.922 114.952 188.184 115.966C188.478 116.98 188.625 118.043 188.625 119.155C188.625 120.365 188.462 121.509 188.135 122.588C187.808 123.667 187.301 124.616 186.614 125.433C185.927 126.251 185.028 126.905 183.916 127.396C182.837 127.853 181.545 128.082 180.041 128.082H165.865C162.824 128.082 161.303 126.463 161.303 123.226V98.3562Z" fill="#4B2D10"/>
<path d="M122.63 110.816C122.63 108.363 123.088 106.074 124.004 103.948C124.919 101.823 126.178 99.9585 127.781 98.3561C129.383 96.7537 131.247 95.4947 133.373 94.579C135.498 93.6634 137.787 93.2056 140.24 93.2056C142.693 93.2056 144.982 93.6634 147.107 94.579C149.266 95.4947 151.13 96.7537 152.699 98.3561C154.302 99.9585 155.561 101.823 156.477 103.948C157.425 106.074 157.899 108.363 157.899 110.816C157.899 113.268 157.425 115.557 156.477 117.683C155.561 119.809 154.302 121.673 152.699 123.275C151.13 124.877 149.266 126.136 147.107 127.052C144.982 127.968 142.693 128.425 140.24 128.425C137.787 128.425 135.498 127.968 133.373 127.052C131.247 126.136 129.383 124.877 127.781 123.275C126.178 121.673 124.919 119.809 124.004 117.683C123.088 115.557 122.63 113.268 122.63 110.816ZM132.294 110.963C132.294 112.075 132.506 113.121 132.931 114.102C133.356 115.05 133.929 115.884 134.648 116.604C135.368 117.323 136.201 117.895 137.15 118.321C138.131 118.713 139.177 118.909 140.289 118.909C141.401 118.909 142.431 118.713 143.379 118.321C144.361 117.895 145.211 117.323 145.93 116.604C146.682 115.884 147.271 115.05 147.696 114.102C148.121 113.121 148.334 112.075 148.334 110.963C148.334 109.851 148.121 108.804 147.696 107.823C147.271 106.842 146.682 105.992 145.93 105.273C145.211 104.553 144.361 103.981 143.379 103.556C142.431 103.131 141.401 102.918 140.289 102.918C139.177 102.918 138.131 103.131 137.15 103.556C136.201 103.981 135.368 104.553 134.648 105.273C133.929 105.992 133.356 106.842 132.931 107.823C132.506 108.804 132.294 109.851 132.294 110.963Z" fill="#4B2D10"/>
<path d="M114.503 123.52C114.503 125.09 114.028 126.284 113.08 127.101C112.132 127.886 111.003 128.278 109.695 128.278C108.42 128.278 107.308 127.886 106.36 127.101C105.444 126.284 104.986 125.09 104.986 123.52V103.163H101.651C100.146 103.163 98.9691 102.689 98.1189 101.741C97.3014 100.793 96.8926 99.6643 96.8926 98.3562C96.8926 97.0482 97.3014 95.92 98.1189 94.9716C98.9691 94.0233 100.146 93.5491 101.651 93.5491H117.74C119.244 93.5491 120.422 94.0233 121.272 94.9716C122.122 95.92 122.547 97.0482 122.547 98.3562C122.547 99.6643 122.122 100.793 121.272 101.741C120.422 102.689 119.244 103.163 117.74 103.163H114.503V123.52Z" fill="#4B2D10"/>
<path d="M145.229 50.5079L154.156 37.2146C154.712 36.3971 155.35 35.7921 156.069 35.3997C156.822 35.0073 157.606 34.811 158.424 34.811C159.013 34.811 159.569 34.9255 160.092 35.1544C160.615 35.3506 161.089 35.6613 161.514 36.0864C161.939 36.4788 162.266 36.9694 162.495 37.558C162.757 38.1466 162.888 38.8007 162.888 39.5201V65.1747C162.888 66.6463 162.446 67.7745 161.563 68.5594C160.68 69.3115 159.634 69.6876 158.424 69.6876C157.149 69.6876 156.053 69.3115 155.137 68.5594C154.255 67.7745 153.813 66.6463 153.813 65.1747V53.9416L144.934 67.235C144.379 68.0852 143.708 68.7065 142.923 69.099C142.171 69.4914 141.403 69.6876 140.618 69.6876C140.029 69.6876 139.457 69.5895 138.901 69.3933C138.378 69.1644 137.904 68.8537 137.478 68.4613C137.086 68.0361 136.759 67.5293 136.497 66.9406C136.236 66.352 136.105 65.6816 136.105 64.9295V39.3239C136.105 37.8523 136.546 36.7405 137.429 35.9883C138.345 35.2035 139.408 34.811 140.618 34.811C141.893 34.811 142.972 35.2035 143.855 35.9883C144.771 36.7405 145.229 37.8523 145.229 39.3239V50.5079ZM155.383 25.0005C156.037 25.0005 156.609 25.2621 157.1 25.7853C157.59 26.2759 157.835 26.8645 157.835 27.5512C157.835 28.4342 157.557 29.219 157.001 29.9058C156.446 30.5598 155.742 31.1321 154.892 31.6226C154.075 32.0804 153.175 32.4402 152.194 32.7018C151.246 32.9307 150.363 33.0451 149.545 33.0451C148.695 33.0451 147.78 32.9307 146.798 32.7018C145.85 32.4402 144.951 32.0804 144.101 31.6226C143.283 31.1321 142.596 30.5598 142.04 29.9058C141.484 29.219 141.206 28.4342 141.206 27.5512C141.206 26.8645 141.452 26.2759 141.942 25.7853C142.433 25.2621 143.005 25.0005 143.659 25.0005C144.411 25.0005 144.967 25.164 145.327 25.491C145.687 25.818 146.014 26.1941 146.308 26.6192C146.635 27.0117 147.011 27.3714 147.436 27.6984C147.894 28.0254 148.597 28.1889 149.545 28.1889C150.461 28.1889 151.131 28.0254 151.557 27.6984C152.014 27.3714 152.391 27.0117 152.685 26.6192C153.012 26.1941 153.355 25.818 153.715 25.491C154.075 25.164 154.631 25.0005 155.383 25.0005Z" fill="#4B2D10"/>
<path d="M97.481 52.2247C97.481 49.7721 97.9388 47.4829 98.8544 45.3573C99.7701 43.2317 101.029 41.3677 102.632 39.7653C104.234 38.1629 106.098 36.9039 108.224 35.9882C110.349 35.0726 112.638 34.6147 115.091 34.6147C117.544 34.6147 119.833 35.0726 121.958 35.9882C124.117 36.9039 125.981 38.1629 127.55 39.7653C129.153 41.3677 130.412 43.2317 131.327 45.3573C132.276 47.4829 132.75 49.7721 132.75 52.2247C132.75 54.6773 132.276 56.9665 131.327 59.0921C130.412 61.2177 129.153 63.0817 127.55 64.6841C125.981 66.2865 124.117 67.5455 121.958 68.4612C119.833 69.3768 117.544 69.8347 115.091 69.8347C112.638 69.8347 110.349 69.3768 108.224 68.4612C106.098 67.5455 104.234 66.2865 102.632 64.6841C101.029 63.0817 99.7701 61.2177 98.8544 59.0921C97.9388 56.9665 97.481 54.6773 97.481 52.2247ZM107.144 52.3719C107.144 53.4837 107.357 54.5302 107.782 55.5112C108.207 56.4596 108.779 57.2935 109.499 58.0129C110.218 58.7324 111.052 59.3047 112.001 59.7298C112.982 60.1222 114.028 60.3184 115.14 60.3184C116.252 60.3184 117.282 60.1222 118.23 59.7298C119.211 59.3047 120.062 58.7324 120.781 58.0129C121.533 57.2935 122.122 56.4596 122.547 55.5112C122.972 54.5302 123.185 53.4837 123.185 52.3719C123.185 51.26 122.972 50.2135 122.547 49.2325C122.122 48.2514 121.533 47.4012 120.781 46.6817C120.062 45.9623 119.211 45.39 118.23 44.9649C117.282 44.5398 116.252 44.3272 115.14 44.3272C114.028 44.3272 112.982 44.5398 112.001 44.9649C111.052 45.39 110.218 45.9623 109.499 46.6817C108.779 47.4012 108.207 48.2514 107.782 49.2325C107.357 50.2135 107.144 51.26 107.144 52.3719Z" fill="#4B2D10"/>
</svg>
