<svg width="16" height="20" viewBox="0 0 16 20" fill="none" xmlns="http://www.w3.org/2000/svg">
<path d="M8 14.9483C8.53043 14.9483 9.03914 14.7354 9.41421 14.3565C9.78929 13.9775 10 13.4636 10 12.9277C10 12.3918 9.78929 11.8778 9.41421 11.4988C9.03914 11.1199 8.53043 10.907 8 10.907C7.46957 10.907 6.96086 11.1199 6.58579 11.4988C6.21071 11.8778 6 12.3918 6 12.9277C6 13.4636 6.21071 13.9775 6.58579 14.3565C6.96086 14.7354 7.46957 14.9483 8 14.9483ZM14 5.85532C14.5304 5.85532 15.0391 6.06821 15.4142 6.44716C15.7893 6.82611 16 7.34008 16 7.87599V17.9793C16 18.5152 15.7893 19.0292 15.4142 19.4082C15.0391 19.7871 14.5304 20 14 20H2C1.46957 20 0.960859 19.7871 0.585786 19.4082C0.210714 19.0292 0 18.5152 0 17.9793V7.87599C0 7.34008 0.210714 6.82611 0.585786 6.44716C0.960859 6.06821 1.46957 5.85532 2 5.85532H3V5.05167C3 3.71188 3.52678 2.42697 4.46447 1.4796C5.40215 0.532228 6.67392 0 8 0C8.65661 0 9.30679 0.130665 9.91342 0.384536C10.52 0.638406 11.0712 1.01051 11.5355 1.4796C11.9998 1.94869 12.3681 2.50558 12.6194 3.11848C12.8707 3.73138 13 4.38828 13 5.05167V5.85532H14ZM8 2.02067C7.20435 2.02067 6.44129 2.34001 5.87868 2.90843C5.31607 3.47685 5 4.2478 5 5.05167V5.85532H11V5.05167C11 4.2478 10.6839 3.47685 10.1213 2.90843C9.55871 2.34001 8.79565 2.02067 8 2.02067Z" fill="black"/>
</svg>
