<svg width="27" height="28" viewBox="0 0 27 28" fill="none" xmlns="http://www.w3.org/2000/svg">
<path d="M23.9574 14.8579C23.7534 14.6207 23.6409 14.3157 23.6409 14C23.6409 13.6843 23.7534 13.3793 23.9574 13.1421L25.586 11.2704C25.7654 11.0659 25.8769 10.8085 25.9043 10.5353C25.9317 10.2621 25.8737 9.98704 25.7386 9.74958L23.194 5.25219C23.0603 5.015 22.8567 4.82699 22.6122 4.71495C22.3677 4.60292 22.0949 4.57259 21.8326 4.62827L19.4406 5.12221C19.1362 5.18646 18.8193 5.13467 18.5498 4.97663C18.2802 4.81858 18.0766 4.56521 17.9774 4.26432L17.2013 1.88565C17.1159 1.62748 16.9533 1.40324 16.7364 1.24463C16.5195 1.08602 16.2593 1.00106 15.9925 1.00177H10.9032C10.6257 0.986973 10.3512 1.06536 10.1214 1.22497C9.89167 1.38457 9.71937 1.61661 9.63085 1.88565L8.91833 4.26432C8.81909 4.56521 8.61548 4.81858 8.34593 4.97663C8.07637 5.13467 7.75951 5.18646 7.45515 5.12221L4.99953 4.62827C4.75086 4.59237 4.49734 4.63246 4.27093 4.74349C4.04451 4.85452 3.85532 5.03152 3.7272 5.25219L1.18252 9.74958C1.04404 9.98439 0.981771 10.2579 1.00462 10.5311C1.02747 10.8042 1.13427 11.063 1.30975 11.2704L2.92562 13.1421C3.1296 13.3793 3.2421 13.6843 3.2421 14C3.2421 14.3157 3.1296 14.6207 2.92562 14.8579L1.30975 16.7296C1.13427 16.937 1.02747 17.1958 1.00462 17.4689C0.981771 17.7421 1.04404 18.0156 1.18252 18.2504L3.7272 22.7478C3.86091 22.985 4.06452 23.173 4.30897 23.285C4.55343 23.3971 4.82627 23.4274 5.0886 23.3717L7.48059 22.8778C7.78496 22.8135 8.10182 22.8653 8.37137 23.0234C8.64093 23.1814 8.84454 23.4348 8.94378 23.7357L9.71991 26.1144C9.80844 26.3834 9.98073 26.6154 10.2105 26.775C10.4402 26.9346 10.7148 27.013 10.9922 26.9982H16.0816C16.3483 26.9989 16.6085 26.914 16.8254 26.7554C17.0423 26.5968 17.205 26.3725 17.2903 26.1144L18.0664 23.7357C18.1657 23.4348 18.3693 23.1814 18.6389 23.0234C18.9084 22.8653 19.2253 22.8135 19.5296 22.8778L21.9216 23.3717C22.184 23.4274 22.4568 23.3971 22.7013 23.285C22.9457 23.173 23.1493 22.985 23.283 22.7478L25.8277 18.2504C25.9628 18.013 26.0208 17.7379 25.9934 17.4647C25.9659 17.1915 25.8545 16.9341 25.675 16.7296L23.9574 14.8579ZM22.0616 16.5996L23.0795 17.7695L21.4509 20.6551L19.9495 20.3431C19.0331 20.1518 18.0799 20.3108 17.2707 20.79C16.4615 21.2692 15.8528 22.0353 15.5599 22.9428L15.0765 24.3986H11.8193L11.3612 22.9168C11.0684 22.0093 10.4596 21.2432 9.65044 20.764C8.84127 20.2848 7.88802 20.1258 6.97166 20.3171L5.4703 20.6291L3.81626 17.7565L4.83413 16.5866C5.46006 15.8717 5.80611 14.9462 5.80611 13.987C5.80611 13.0278 5.46006 12.1023 4.83413 11.3874L3.81626 10.2175L5.44485 7.3579L6.94621 7.66986C7.86258 7.86122 8.81582 7.7022 9.625 7.22298C10.4342 6.74376 11.043 5.9777 11.3358 5.07021L11.8193 3.60141H15.0765L15.5599 5.08321C15.8528 5.9907 16.4615 6.75676 17.2707 7.23598C18.0799 7.7152 19.0331 7.87422 19.9495 7.68286L21.4509 7.3709L23.0795 10.2565L22.0616 11.4264C21.4427 12.1396 21.1009 13.0598 21.1009 14.013C21.1009 14.9662 21.4427 15.8864 22.0616 16.5996ZM13.4479 8.80071C12.4413 8.80071 11.4573 9.10564 10.6204 9.67695C9.78343 10.2483 9.13111 11.0603 8.74591 12.0103C8.36071 12.9604 8.25992 14.0058 8.4563 15.0143C8.65267 16.0229 9.13738 16.9493 9.84914 17.6765C10.5609 18.4036 11.4677 18.8988 12.455 19.0994C13.4422 19.3 14.4655 19.197 15.3955 18.8035C16.3254 18.41 17.1203 17.7436 17.6795 16.8886C18.2387 16.0336 18.5372 15.0283 18.5372 14C18.5372 12.6211 18.001 11.2986 17.0466 10.3235C16.0921 9.34849 14.7976 8.80071 13.4479 8.80071ZM13.4479 16.5996C12.9446 16.5996 12.4526 16.4472 12.0341 16.1615C11.6156 15.8759 11.2895 15.4699 11.0969 14.9948C10.9043 14.5198 10.8539 13.9971 10.9521 13.4928C11.0503 12.9886 11.2926 12.5253 11.6485 12.1618C12.0044 11.7982 12.4578 11.5506 12.9514 11.4503C13.445 11.35 13.9567 11.4015 14.4217 11.5982C14.8866 11.795 15.2841 12.1282 15.5637 12.5557C15.8433 12.9832 15.9925 13.4858 15.9925 14C15.9925 14.6895 15.7244 15.3507 15.2472 15.8382C14.77 16.3258 14.1228 16.5996 13.4479 16.5996Z" fill="#4B2D10" stroke="#4B2D10"/>
</svg>
