<svg width="20" height="20" viewBox="0 0 20 20" fill="none" xmlns="http://www.w3.org/2000/svg">
<path d="M17.8403 2.99169C17.6367 3.19532 17.3044 3.18439 17.1023 2.9792C15.2936 1.14243 12.7853 0 10 0C4.6442 0 0.272698 4.20895 0.0122751 9.50007C-0.00129993 9.77588 0.223858 10 0.5 10H2C2.27614 10 2.49827 9.77544 2.51638 9.4999C2.77342 5.58887 6.02352 2.5 10 2.5C12.1192 2.5 14.0167 3.39026 15.3746 4.80627C15.5549 4.99425 15.5417 5.29029 15.3576 5.47446L14.1856 6.64645C13.8706 6.96143 14.0937 7.5 14.5391 7.5H19.5C19.7761 7.5 20 7.27614 20 7V2.03914C20 1.59369 19.4614 1.3706 19.1464 1.68558L17.8403 2.99169ZM10 17.5C7.8808 17.5 5.98333 16.6097 4.62536 15.1937C4.44508 15.0057 4.45826 14.7097 4.64243 14.5255L5.81442 13.3536C6.1294 13.0386 5.90631 12.5 5.46086 12.5H0.5C0.223858 12.5 0 12.7239 0 13V17.9609C0 18.4063 0.538571 18.6294 0.853553 18.3144L2.15966 17.0083C2.36329 16.8047 2.69561 16.8156 2.89768 17.0208C4.70684 18.8576 7.21831 20 10 20C15.3558 20 19.7273 15.791 19.9877 10.4999C20.0013 10.2241 19.7761 10 19.5 10H18C17.7239 10 17.5017 10.2246 17.4836 10.5001C17.2266 14.4111 13.9765 17.5 10 17.5Z" fill="white"/>
</svg>
