<svg width="26" height="30" viewBox="0 0 26 30" fill="none" xmlns="http://www.w3.org/2000/svg">
    <path fill-rule="evenodd" clip-rule="evenodd" d="M21.0953 6.80952C22.1473 6.80952 23 5.95673 23 4.90476C23 3.85279 22.1473 3 21.0953 3C20.0433 3 19.1905 3.85279 19.1905 4.90476C19.1905 5.95673 20.0433 6.80952 21.0953 6.80952ZM21.0953 9.80952C23.8041 9.80952 26 7.61359 26 4.90476C26 2.19594 23.8041 0 21.0953 0C18.3865 0 16.1905 2.19594 16.1905 4.90476C16.1905 5.3501 16.2499 5.78157 16.3611 6.1917L8.22502 10.8891C7.38459 10.2136 6.31688 9.80948 5.15476 9.80948C2.44594 9.80948 0.25 12.0054 0.25 14.7142C0.25 17.4231 2.44594 19.619 5.15476 19.619C6.22592 19.619 7.21689 19.2756 8.02358 18.6929L16.3033 23.4732C16.2294 23.8117 16.1905 24.1632 16.1905 24.5239C16.1905 27.2327 18.3865 29.4286 21.0953 29.4286C23.8041 29.4286 26 27.2327 26 24.5239C26 21.815 23.8041 19.6191 21.0953 19.6191C19.8326 19.6191 18.6813 20.0963 17.8119 20.8801L9.81076 16.2607C9.97215 15.7745 10.0595 15.2546 10.0595 14.7142C10.0595 14.258 9.99724 13.8163 9.8807 13.3973L17.9999 8.70963C18.8442 9.39725 19.9216 9.80952 21.0953 9.80952ZM5.15476 16.619C6.20673 16.619 7.05952 15.7662 7.05952 14.7142C7.05952 13.6623 6.20673 12.8095 5.15476 12.8095C4.10279 12.8095 3.25 13.6623 3.25 14.7142C3.25 15.7662 4.10279 16.619 5.15476 16.619ZM23 24.5239C23 25.5758 22.1473 26.4286 21.0953 26.4286C20.0433 26.4286 19.1905 25.5758 19.1905 24.5239C19.1905 23.4719 20.0433 22.6191 21.0953 22.6191C22.1473 22.6191 23 23.4719 23 24.5239Z" fill="#FFF4D9"/>
    </svg>
    